<svg xmlns="http://www.w3.org/2000/svg" xmlns:xlink="http://www.w3.org/1999/xlink" viewBox="0 0 754.39 261.76"><defs><style>.cls-1{fill:#4c4d4f;}.cls-2{fill:url(#linear-gradient);}.cls-3,.cls-4,.cls-5{fill:#226486;}.cls-3{opacity:0.9;}.cls-4{opacity:0.7;}.cls-5{opacity:0.8;}</style><linearGradient id="linear-gradient" x1="61.29" y1="396.81" x2="283.11" y2="80.02" gradientUnits="userSpaceOnUse"><stop offset="0.14" stop-color="#153e54"/><stop offset="0.39" stop-color="#194a64"/><stop offset="0.79" stop-color="#226486"/></linearGradient></defs><title>Axeptia-left</title><g id="Co._Name_and_Slogan" data-name="Co. Name and Slogan"><g id="Slogan"><path class="cls-1" d="M419.59,278.89a8.62,8.62,0,0,1,.72,1.8,10.21,10.21,0,0,1,.36,2.2,19,19,0,0,1-6.94,1.19c-9,0-13.25-5.56-13.25-13.77s4.71-13.81,12.9-13.81a19,19,0,0,1,6.93,1.08,10.16,10.16,0,0,1-.24,2,8.27,8.27,0,0,1-.64,2,17.51,17.51,0,0,0-5.75-.86c-5.51,0-7.86,4.11-7.86,9.54,0,6.66,3.23,9.5,8.27,9.5A14.37,14.37,0,0,0,419.59,278.89Z" transform="translate(-71.38 -70.72)"/><path class="cls-1" d="M426.57,257.12a11.4,11.4,0,0,1,4.32,0,26.48,26.48,0,0,1,.46,4.15,10.77,10.77,0,0,1,2.85-3,8.63,8.63,0,0,1,6.14-1.18,12.52,12.52,0,0,1,0,4.63,9.63,9.63,0,0,0-4.19.28c-2.3.68-4.44,2.91-4.44,8.4v13.09a16.38,16.38,0,0,1-2.52.2c-.38,0-.8,0-1.26-.05a12.76,12.76,0,0,1-1.31-.15Z" transform="translate(-71.38 -70.72)"/><path class="cls-1" d="M448.7,271.55c.13,5.4,2.65,8.32,8.53,8.32a19,19,0,0,0,6.93-1.29,7.34,7.34,0,0,1,.67,1.88,12.72,12.72,0,0,1,.31,2.18,21,21,0,0,1-8.22,1.44c-8.71,0-13.61-4.73-13.61-13.61,0-8.32,4.43-14,12.43-14s11.74,6.28,10.88,15.05Zm13.05-3.81c0-4-2.1-7.19-6.16-7.19-4.32,0-6.38,2.86-6.83,7.19Z" transform="translate(-71.38 -70.72)"/><path class="cls-1" d="M490.35,245.82a16,16,0,0,1,5,0v36.92a35.94,35.94,0,0,1-4.37.95,33.83,33.83,0,0,1-5.39.39c-9.05,0-13.6-5-13.6-13.31s5.14-14.21,13.24-14.21a19.09,19.09,0,0,1,5.09.71Zm0,15.77a12.57,12.57,0,0,0-4.78-.82c-5.63,0-8.16,4.35-8.16,10s2.4,9.1,8.47,9.1a16,16,0,0,0,4.47-.52Z" transform="translate(-71.38 -70.72)"/><path class="cls-1" d="M505.08,261.13h-3.33a9.85,9.85,0,0,1,0-4h8.32v26.34a15.75,15.75,0,0,1-5,0ZM504,251.31a21,21,0,0,1,0-5.19,19.42,19.42,0,0,1,5.49,0,21.45,21.45,0,0,1,0,5.19A18.71,18.71,0,0,1,504,251.31Z" transform="translate(-71.38 -70.72)"/><path class="cls-1" d="M519.31,261.17h-4l-.2-.72,8.83-9.86h.41v6.53H531a8.93,8.93,0,0,1,.2,1.95,10.33,10.33,0,0,1-.2,2.1h-6.68c0,12.7-.05,13.78.18,15.46.35,2.49,1.31,3.14,3.67,3.14a11.7,11.7,0,0,0,3-.42,11.09,11.09,0,0,1,.52,4,19.12,19.12,0,0,1-4.57.51c-5.6,0-7.86-2.83-7.86-7.75Z" transform="translate(-71.38 -70.72)"/><path class="cls-1" d="M558.79,261.11h-3.33a9.63,9.63,0,0,1,0-4h8.31v26.34a15.12,15.12,0,0,1-5,0Zm-1.13-9.8a21.45,21.45,0,0,1,0-5.19,19.05,19.05,0,0,1,5.49,0,21,21,0,0,1,0,5.19A19,19,0,0,1,557.66,251.31Z" transform="translate(-71.38 -70.72)"/><path class="cls-1" d="M572,257.11a11.27,11.27,0,0,1,4.31,0,27.9,27.9,0,0,1,.46,4.26,9.75,9.75,0,0,1,8.43-4.88c6.37,0,8.83,3.93,8.83,10.27v16.69a16,16,0,0,1-5.08,0v-15.3c0-5.79-2.13-7.09-4.73-7.09-4.93,0-7.14,4.1-7.14,9v13.35a15.7,15.7,0,0,1-5.08,0Z" transform="translate(-71.38 -70.72)"/><path class="cls-1" d="M602.69,261.17h-4l-.21-.72,8.84-9.86h.41v6.52h6.67a10,10,0,0,1,0,4.06h-6.67c0,12.95-.05,13.79.18,15.45.36,2.57,1.36,3.13,3.67,3.13a12.53,12.53,0,0,0,3-.41,8.08,8.08,0,0,1,.43,2.11c.05.72.08,1.35.08,1.9a18.9,18.9,0,0,1-4.57.51c-5.54,0-7.86-2.77-7.86-7.75Z" transform="translate(-71.38 -70.72)"/><path class="cls-1" d="M623.9,271.54c.13,5.44,2.66,8.32,8.53,8.32a18.83,18.83,0,0,0,6.93-1.29,7.91,7.91,0,0,1,.66,1.88,11.8,11.8,0,0,1,.31,2.18,21,21,0,0,1-8.21,1.44c-8.5,0-13.61-4.51-13.61-13.61s5.11-14,12.42-14c8.23,0,11.75,6.45,10.89,15.05Zm13-3.8c0-4-2.13-7.19-6.16-7.19a6.06,6.06,0,0,0-4.8,1.9,9.3,9.3,0,0,0-2,5.29Z" transform="translate(-71.38 -70.72)"/><path class="cls-1" d="M648.55,245.81a16,16,0,0,1,5,0v29.68c0,2.92.75,4.21,3.24,4.21a9.38,9.38,0,0,0,2-.2,15.45,15.45,0,0,1,.46,3.9,12.23,12.23,0,0,1-3.64.41c-4.54,0-7.14-2.25-7.14-7.19Z" transform="translate(-71.38 -70.72)"/><path class="cls-1" d="M663.85,245.81a16,16,0,0,1,5,0v29.68c0,1.7.29,3.73,2,4.08a8.68,8.68,0,0,0,3.31-.07,15.45,15.45,0,0,1,.46,3.9,12.23,12.23,0,0,1-3.64.41c-4.54,0-7.14-2.25-7.14-7.19Z" transform="translate(-71.38 -70.72)"/><path class="cls-1" d="M680.8,261.11h-3.34a9.8,9.8,0,0,1,0-4h8.32v26.34a15.2,15.2,0,0,1-3.73.16c-.46,0-.88-.09-1.25-.16Zm-1.13-9.8a21,21,0,0,1,0-5.19,18.63,18.63,0,0,1,5.49,0,21.45,21.45,0,0,1,0,5.19A19.41,19.41,0,0,1,679.67,251.31Z" transform="translate(-71.38 -70.72)"/><path class="cls-1" d="M708.16,280.06c5.1.12,8.68,1.94,8.68,7,0,6.35-7.44,9.14-14.17,9.14-5.56,0-10.84-1.27-10.84-6.83a7.35,7.35,0,0,1,4.06-6.42,4.7,4.7,0,0,1-2.41-4.16,6.77,6.77,0,0,1,3.13-5.75,8.71,8.71,0,0,1-3.75-7.29c0-5.23,3.92-9.3,10.73-9.3a12.09,12.09,0,0,1,7.4,2.37,8.14,8.14,0,0,1,2.77-1.37,13,13,0,0,1,3.85-.53,13,13,0,0,1,0,4.57H713a7.51,7.51,0,0,1,1.18,4.26c0,5.82-4.59,9.19-10.58,9.19a14.82,14.82,0,0,1-3.8-.46,4,4,0,0,0-2.1,3.08c0,2,1.72,2.32,3.64,2.36Zm-6.93,4.06c-3.1-.07-4.62,1.93-4.62,4.31,0,3.2,3.1,3.8,6.32,3.8,3.74,0,8.73-1.18,8.73-4.77,0-2.62-2-3.18-4.57-3.24Zm2.36-12.84c3.71,0,5.44-2.29,5.44-5.49s-1.72-5.6-5.44-5.6-5.39,2.27-5.39,5.6S699.93,271.28,703.59,271.28Z" transform="translate(-71.38 -70.72)"/><path class="cls-1" d="M725.73,271.54c.13,5.44,2.66,8.32,8.52,8.32a18.79,18.79,0,0,0,6.93-1.29,7.48,7.48,0,0,1,.67,1.88,11.8,11.8,0,0,1,.31,2.18,21,21,0,0,1-8.21,1.44c-8.81,0-13.61-4.84-13.61-13.61,0-8.39,4.49-14,12.42-14,8.23,0,11.75,6.45,10.89,15.05Zm13-3.8c0-4-2.07-7.19-6.16-7.19-4.33,0-6.38,2.86-6.83,7.19Z" transform="translate(-71.38 -70.72)"/><path class="cls-1" d="M750.48,257.11a11.35,11.35,0,0,1,4.31,0,27.9,27.9,0,0,1,.46,4.26,9.75,9.75,0,0,1,8.42-4.88c6.38,0,8.84,3.93,8.84,10.27v16.69a16,16,0,0,1-5.08,0v-15.3c0-5.79-2.13-7.09-4.73-7.09-4.9,0-7.14,4.07-7.14,9v13.35a16,16,0,0,1-5.08,0Z" transform="translate(-71.38 -70.72)"/><path class="cls-1" d="M797.72,278.88a9.44,9.44,0,0,1,1.08,4,19.17,19.17,0,0,1-6.93,1.18c-8.94,0-13.25-5.54-13.25-13.76s4.94-13.82,12.89-13.82a18.65,18.65,0,0,1,6.93,1.09,11,11,0,0,1-.87,4.05,17.58,17.58,0,0,0-5.75-.88c-5.53,0-7.86,4.13-7.86,9.56,0,6.68,3.24,9.5,8.27,9.5A14.54,14.54,0,0,0,797.72,278.88Z" transform="translate(-71.38 -70.72)"/><path class="cls-1" d="M807.73,271.54c.13,5.44,2.66,8.32,8.53,8.32a18.83,18.83,0,0,0,6.93-1.29,10.38,10.38,0,0,1,1,4.06,21,21,0,0,1-8.21,1.44c-8.8,0-13.61-4.84-13.61-13.61,0-8.39,4.5-14,12.42-14,8.23,0,11.75,6.45,10.89,15.05Zm13-3.8c0-4-2.13-7.19-6.16-7.19-4.32,0-6.38,2.86-6.83,7.19Z" transform="translate(-71.38 -70.72)"/></g><g id="axeptia"><path class="cls-1" d="M425.16,144.58a53.36,53.36,0,0,0-16.59,2.65,20.66,20.66,0,0,1-2.51-10.48,70.31,70.31,0,0,1,20.43-3.05c19.4,0,27.06,9.23,27.06,25.33v42.59c-12.55,2.87-19.45,3.31-24.81,3.31-16.42,0-28.26-5.54-28.26-21.75,0-15.2,13.22-22.82,28.66-22.82a81.05,81.05,0,0,1,11.54.67C440.68,153.73,440.94,144.58,425.16,144.58Zm15.52,26.79a97,97,0,0,0-10.21-.79c-9.41,0-16.85,3-16.85,12.33,0,6.87,4,10.56,9.95,11.15A53.3,53.3,0,0,0,440.68,193Z" transform="translate(-71.38 -70.72)"/><path class="cls-1" d="M483.53,168.05l-16.06-32.76a48.47,48.47,0,0,1,14.33,0l14.06,32.9-17,35.15a44.91,44.91,0,0,1-13.79,0Zm13.39.14,14.19-32.9a46.74,46.74,0,0,1,14.07,0l-15.79,32.37,18.44,35.68a45.28,45.28,0,0,1-13.8,0Z" transform="translate(-71.38 -70.72)"/><path class="cls-1" d="M549.06,172.57c.34,14.2,7,21.49,22,21.49A48.81,48.81,0,0,0,589,190.74a27.16,27.16,0,0,1,2.52,10.48c-6.66,2.82-14,3.71-21.23,3.71-22.91,0-35.15-12.7-35.15-35.15,0-21.87,11.76-36.08,32.1-36.08,19.78,0,29.72,15,28.39,35.35-.09,1.37-.18,2.54-.27,3.52Zm33.69-9.82c0-10.28-5.49-18.57-15.92-18.57-11.25,0-16.47,7.48-17.64,18.57Z" transform="translate(-71.38 -70.72)"/><path class="cls-1" d="M612.87,135.29a29.76,29.76,0,0,1,11.14,0c.26.52,1.32,9,1.32,9.55,4.67-7.45,11.9-11.14,20.7-11.14,19.37,0,27.59,14.58,27.59,34,0,22.78-12.55,37.27-36.34,37.27A43.36,43.36,0,0,1,626,203.47v31.18a41.57,41.57,0,0,1-13.13,0ZM626,192.2c4.08,1.5,7.69,1.72,12.07,1.72,14.91,0,21.75-10.81,21.75-25.73,0-12.7-3.9-23.08-16.71-23.08-9.39,0-17.11,7-17.11,19.5Z" transform="translate(-71.38 -70.72)"/><path class="cls-1" d="M693.79,145.77H683.44l-.53-1.86,22.81-25.47h1.07v16.85H724a25.71,25.71,0,0,1,0,10.48H706.79c0,43.45-1.77,48,9.94,48a30.73,30.73,0,0,0,7.83-1.06c.74,2.13,1.33,4.55,1.33,10.35a48.51,48.51,0,0,1-11.81,1.32c-14.36,0-20.29-7.21-20.29-20Z" transform="translate(-71.38 -70.72)"/><path class="cls-1" d="M742.73,145.64h-8.62a25.77,25.77,0,0,1,0-10.35H755.6v68.05a40,40,0,0,1-12.87,0Zm-2.92-25.34a55.59,55.59,0,0,1,0-13.4,49.16,49.16,0,0,1,14.2,0,56.61,56.61,0,0,1,0,13.4A49.26,49.26,0,0,1,739.81,120.3Z" transform="translate(-71.38 -70.72)"/><path class="cls-1" d="M797.39,144.58a53.32,53.32,0,0,0-16.59,2.65,20.66,20.66,0,0,1-2.52-10.48,70.36,70.36,0,0,1,20.43-3.05c19.41,0,27.07,9.23,27.07,25.33v42.59c-12.55,2.87-19.45,3.31-24.81,3.31-16.43,0-28.26-5.54-28.26-21.75,0-15.2,13.21-22.82,28.66-22.82a81.05,81.05,0,0,1,11.54.67C812.91,153.73,813.17,144.58,797.39,144.58Zm15.52,26.79c-13-1.71-27.06-1.51-27.06,11.54,0,6.93,4.23,10.58,9.94,11.15A53.34,53.34,0,0,0,812.91,193Z" transform="translate(-71.38 -70.72)"/></g></g><g id="Logo"><path id="Shape" class="cls-2" d="M133.17,332.47c-17.56,0-32.33-6.87-42.74-19.87-20.75-25.94-24.76-75.92-11-137.11,14.45-65.61,50.3-104.77,95.9-104.77,20,0,41,7.27,62.58,21.6,49.55,33,85,79.1,90.36,117.4,2.39,17.11-1.39,32.06-10.92,43.23C284.73,292.41,203.12,324,143.05,331.82A82.68,82.68,0,0,1,133.17,332.47ZM194.61,102.4c-26.79,0-47.2,27.33-54.6,73.12-7.66,46.33-3.28,84.56,11.74,102.25A30.6,30.6,0,0,0,176,289.16a41.35,41.35,0,0,0,4.68-.28c41.69-5,89.48-28.94,106.56-53.46,18.44-25.66-5.73-78.95-52.82-116.31C220.49,108,207.08,102.4,194.61,102.4Z" transform="translate(-71.38 -70.72)"/><g id="Chart"><path class="cls-3" d="M216.73,256.2c-18.19,0-35.73-9.14-46.93-24.45l-.27-.38,26.11-15,.22.27c8,9.59,20,14.27,31.86,12.29C244.9,226,256.17,209.84,253.38,192c-2.27-14.43-13.69-26.56-27.79-29.49l-.29-.06-2.28-19,.57.12c22.88,4.82,41.84,24.42,46.11,47.66,6,32.87-17.84,64.94-53,64.94Z" transform="translate(-71.38 -70.72)"/><path class="cls-4" d="M183.39,150.52l.47-.29a53.58,53.58,0,0,1,29-7.85l2.08,19.71-.4,0a31.27,31.27,0,0,0-12.58,4.62l-.26.17Z" transform="translate(-71.38 -70.72)"/><path class="cls-5" d="M174.17,157.86l.28-.28,19.24,16.93a33.5,33.5,0,0,0-4.19,31l-26.6,14C153.74,197.53,158.41,173.51,174.17,157.86Z" transform="translate(-71.38 -70.72)"/></g></g></svg>